<?xml version="1.0" encoding="utf-8"?>
<!-- Generator: Adobe Illustrator 23.0.1, SVG Export Plug-In . SVG Version: 6.00 Build 0)  -->
<svg version="1.1" id="Layer_1" xmlns="http://www.w3.org/2000/svg" xmlns:xlink="http://www.w3.org/1999/xlink" x="0px" y="0px"
	 viewBox="0 0 512 512" style="enable-background:new 0 0 512 512;" xml:space="preserve">
<style type="text/css">
	.st0{fill:#FFFFFF;}
</style>
<path class="st0" d="M105.2,24.9c-3.1-8.9-15.7-8.9-18.9,0L29.8,199.7h132C161.7,199.7,105.2,24.9,105.2,24.9z M0.9,287.7
	c-2.6,8,0.3,16.9,7.1,22l247.9,184l-226.2-294L0.9,287.7z M161.7,199.7l94.3,294l94.3-294H161.7z M511.1,287.7l-28.8-88L256,493.7
	l247.9-184C510.8,304.6,513.6,295.7,511.1,287.7z M425.7,24.9c-3.1-8.9-15.7-8.9-18.9,0l-56.6,174.8h132L425.7,24.9z"/>
</svg>
