<?xml version="1.0" encoding="utf-8"?>
<!-- Generator: Adobe Illustrator 23.0.1, SVG Export Plug-In . SVG Version: 6.00 Build 0)  -->
<svg version="1.1" id="Layer_1" xmlns="http://www.w3.org/2000/svg" xmlns:xlink="http://www.w3.org/1999/xlink" x="0px" y="0px"
	 viewBox="0 0 448 512" style="enable-background:new 0 0 448 512;" xml:space="preserve">
<style type="text/css">
	.st0{fill:#FFFFFF;}
</style>
<path class="st0" d="M299.9,191.2c5.1,37.3-4.7,79-35.9,100.7c-22.3,15.5-52.8,14.1-70.8,5.7c-37.1-17.3-49.5-58.6-46.8-97.2
	c4.3-60.9,40.9-87.9,75.3-87.5C268.6,112.7,293.5,144.7,299.9,191.2L299.9,191.2z M448,88v336c0,30.9-25.1,56-56,56H56
	c-30.9,0-56-25.1-56-56V88c0-30.9,25.1-56,56-56h336C422.9,32,448,57.1,448,88z M330,313.2c0,0-0.1-34-0.1-217.3h-29v40.3
	c-0.8,0.3-1.2-0.5-1.6-1.2c-9.6-20.7-35.9-46.3-76-46c-51.9,0.4-87.2,31.2-100.6,77.8c-4.3,14.9-5.8,30.1-5.5,45.6
	c1.7,77.9,45.1,117.8,112.4,115.2c28.9-1.1,54.5-17,69-45.2c0.5-1,1.1-1.9,1.7-2.9c0.2,0.1,0.4,0.1,0.6,0.2
	c0.3,3.8,0.2,30.7,0.1,34.5c-0.2,14.8-2,29.5-7.2,43.5c-7.8,21-22.3,34.7-44.5,39.5c-17.8,3.9-35.6,3.8-53.2-1.2
	c-21.5-6.1-36.5-19-41.1-41.8c-0.3-1.6-1.3-1.3-2.3-1.3h-26.8c0.8,10.6,3.2,20.3,8.5,29.2c24.2,40.5,82.7,48.5,128.2,37.4
	C312.5,407.2,329.9,364.6,330,313.2L330,313.2z"/>
</svg>
