<?xml version="1.0" encoding="utf-8"?>
<!-- Generator: Adobe Illustrator 23.0.1, SVG Export Plug-In . SVG Version: 6.00 Build 0)  -->
<svg version="1.1" id="Layer_1" xmlns="http://www.w3.org/2000/svg" xmlns:xlink="http://www.w3.org/1999/xlink" x="0px" y="0px"
	 viewBox="0 0 448 512" style="enable-background:new 0 0 448 512;" xml:space="preserve">
<style type="text/css">
	.st0{fill:#FFFFFF;}
</style>
<path class="st0" d="M400,32H48C21.5,32,0,53.5,0,80v352c0,26.5,21.5,48,48,48h352c26.5,0,48-21.5,48-48V80
	C448,53.5,426.5,32,400,32z M21.3,229.2H21c0.1-0.1,0.2-0.3,0.3-0.4V229.2z M97,319.8H64V192h33V319.8z M210.2,319.8h-28.7v-86.4
	l-11.6,86.4h-20.6l-12.2-84.5v84.5h-29V192h42.8c3.3,19.8,6,39.9,8.7,59.9l7.6-59.9h43V319.8z M221.6,319.8V192h24.6
	c17.6,0,44.7-1.6,49,20.9c1.7,7.6,1.4,16.3,1.4,24.4C296.6,325.8,307.7,319.9,221.6,319.8L221.6,319.8z M382.5,290.6
	c0,15.7-2.4,30.9-22.2,30.9c-9,0-15.2-3-20.9-9.8l-1.9,8.1h-29.8V192h31.7v41.7c6-6.5,12-9.2,20.9-9.2c21.4,0,22.2,12.8,22.2,30.1
	L382.5,290.6z M265,229.9c0-9.7,1.6-16-10.3-16v83.7c12.2,0.3,10.3-8.7,10.3-18.4V229.9z M350.5,256c0-5.4,1.1-12.7-6.2-12.7
	c-6,0-4.9,8.9-4.9,12.7c0,0.6-1.1,39.6,1.1,44.7c0.8,1.6,2.2,2.4,3.8,2.4c7.8,0,6.2-9,6.2-14.4V256z"/>
</svg>
