<?xml version="1.0" encoding="utf-8"?>
<!-- Generator: Adobe Illustrator 23.0.1, SVG Export Plug-In . SVG Version: 6.00 Build 0)  -->
<svg version="1.1" id="Layer_1" xmlns="http://www.w3.org/2000/svg" xmlns:xlink="http://www.w3.org/1999/xlink" x="0px" y="0px"
	 viewBox="0 0 448 512" style="enable-background:new 0 0 448 512;" xml:space="preserve">
<style type="text/css">
	.st0{fill:#FFFFFF;}
</style>
<path class="st0" d="M352,320c-25.6,0-48.9,10-66.1,26.4l-98.3-61.5c5.9-18.8,5.9-39.1,0-57.8l98.3-61.5
	C303.1,182,326.4,192,352,192c53,0,96-43,96-96S405,0,352,0s-96,43-96,96c0,9.8,1.5,19.6,4.4,28.9l-98.3,61.5
	C144.9,170,121.6,160,96,160c-53,0-96,43-96,96s43,96,96,96c25.6,0,48.9-10,66.1-26.4l98.3,61.5c-2.9,9.4-4.4,19.1-4.4,28.9
	c0,53,43,96,96,96s96-43,96-96S405,320,352,320L352,320z M352,48c26.5,0,48,21.5,48,48s-21.5,48-48,48s-48-21.5-48-48
	S325.5,48,352,48z M96,304c-26.5,0-48-21.5-48-48s21.5-48,48-48s48,21.5,48,48S122.5,304,96,304z M352,464c-26.5,0-48-21.5-48-48
	s21.5-48,48-48s48,21.5,48,48S378.5,464,352,464z"/>
</svg>
